<mxfile host="app.diagrams.net" modified="2023-12-19T20:39:41.640Z" agent="Mozilla/5.0 (Windows NT 10.0; Win64; x64) AppleWebKit/537.36 (KHTML, like Gecko) Chrome/119.0.0.0 Safari/537.36" version="22.1.11" etag="_QuSZPscnJhs2wtzKWgC" type="github">
  <diagram name="Side-1" id="8rPIcWWym98v2iRphj2T">
    <mxGraphModel>
      <root>
        <mxCell id="0" />
        <mxCell id="1" parent="0" />
      </root>
    </mxGraphModel>
  </diagram>
</mxfile>
